<svg xmlns="http://www.w3.org/2000/svg" xmlns:xlink="http://www.w3.org/1999/xlink" width="30.868" height="10.694" viewBox="0 0 30.868 10.694">
  <defs>
    <clipPath id="clip-path">
      <path id="Caminho_1142" data-name="Caminho 1142" d="M0,0H30.868V-10.694H0Z" fill="none"/>
    </clipPath>
  </defs>
  <g id="cotamodelo_b" transform="translate(0 10.694)">
    <g id="Grupo_649" data-name="Grupo 649" clip-path="url(#clip-path)">
      <g id="Grupo_644" data-name="Grupo 644" transform="translate(27.694 -2.51)">
        <path id="Caminho_1137" data-name="Caminho 1137" d="M0,0-3.636-2.639" fill="none" stroke="#2b2e34" stroke-linecap="round" stroke-linejoin="round" stroke-width="1.5" stroke-dasharray="0 2.996"/>
      </g>
      <g id="Grupo_645" data-name="Grupo 645" transform="translate(20.393 -7.206)">
        <path id="Caminho_1138" data-name="Caminho 1138" d="M0,0A11.034,11.034,0,0,0-1.321-.343" fill="none" stroke="#2b2e34" stroke-linecap="round" stroke-linejoin="round" stroke-width="1.5" stroke-dasharray="0 2.731"/>
      </g>
      <g id="Grupo_646" data-name="Grupo 646" transform="translate(14.773 -7.694)">
        <path id="Caminho_1139" data-name="Caminho 1139" d="M0,0H-10.3" fill="none" stroke="#2b2e34" stroke-linecap="round" stroke-linejoin="round" stroke-width="1.5" stroke-dasharray="0 2.943"/>
      </g>
      <g id="Grupo_647" data-name="Grupo 647" transform="translate(30.118 -0.75)">
        <path id="Caminho_1140" data-name="Caminho 1140" d="M0,0H0M-7.273-5.279h0M-12.4-6.944h0m-14.716,0h0" fill="none" stroke="#2b2e34" stroke-linecap="round" stroke-linejoin="round" stroke-width="1.5"/>
      </g>
      <g id="Grupo_648" data-name="Grupo 648" transform="translate(3 -4.694)">
        <path id="Caminho_1141" data-name="Caminho 1141" d="M0,0A3,3,0,0,0,3-3,3,3,0,0,0,0-6,3,3,0,0,0-3-3,3,3,0,0,0,0,0" fill="#2b2e34"/>
      </g>
    </g>
  </g>
</svg>
